<?xml version="1.0" encoding="UTF-8" standalone="no"?>
<!-- Created with Inkscape (http://www.inkscape.org/) -->

<svg
   width="170mm"
   height="56mm"
   viewBox="0 0 170 56"
   version="1.1"
   id="svg1"
   xml:space="preserve"
   inkscape:version="1.3 (0e150ed6c4, 2023-07-21)"
   sodipodi:docname="favicon.svg"
   xmlns:inkscape="http://www.inkscape.org/namespaces/inkscape"
   xmlns:sodipodi="http://sodipodi.sourceforge.net/DTD/sodipodi-0.dtd"
   xmlns:xlink="http://www.w3.org/1999/xlink"
   xmlns="http://www.w3.org/2000/svg"
   xmlns:svg="http://www.w3.org/2000/svg"><sodipodi:namedview
     id="namedview1"
     pagecolor="#ffffff"
     bordercolor="#000000"
     borderopacity="0.25"
     inkscape:showpageshadow="2"
     inkscape:pageopacity="0.0"
     inkscape:pagecheckerboard="0"
     inkscape:deskcolor="#d1d1d1"
     inkscape:document-units="mm"
     inkscape:zoom="0.72426347"
     inkscape:cx="469.44243"
     inkscape:cy="384.52857"
     inkscape:window-width="1680"
     inkscape:window-height="979"
     inkscape:window-x="-8"
     inkscape:window-y="-8"
     inkscape:window-maximized="1"
     inkscape:current-layer="layer1" /><defs
     id="defs1"><linearGradient
       id="linearGradient4"
       inkscape:collect="always"><stop
         style="stop-color:#999999;stop-opacity:1;"
         offset="0"
         id="stop4" /><stop
         style="stop-color:#999999;stop-opacity:0;"
         offset="1"
         id="stop5" /></linearGradient><linearGradient
       inkscape:collect="always"
       xlink:href="#linearGradient4"
       id="linearGradient5"
       x1="20.794418"
       y1="158.47672"
       x2="20.794418"
       y2="180.43356"
       gradientUnits="userSpaceOnUse" /><linearGradient
       inkscape:collect="always"
       xlink:href="#linearGradient4"
       id="linearGradient6"
       gradientUnits="userSpaceOnUse"
       x1="20.794418"
       y1="158.47672"
       x2="20.794418"
       y2="180.43356"
       gradientTransform="matrix(-1,0,0,1,210.22836,0)" /></defs><g
     inkscape:label="Layer 1"
     inkscape:groupmode="layer"
     id="layer1"><g
       id="g2"
       transform="matrix(0.97774771,0,0,0.97774771,-18.020695,-117.19553)"
       inkscape:export-filename="g2.png"
       inkscape:export-xdpi="96"
       inkscape:export-ydpi="96"><g
         id="g6"
         transform="translate(0.25113564,-6.85303)"><path
           style="color:#000000;fill:url(#linearGradient5);fill-opacity:1;-inkscape-stroke:none"
           d="M 25.029297,147.94922 24.75,148.00391 c 0,0 -1.804259,0.3626 -3.419922,1.71484 -1.615663,1.35224 -3.150391,3.91675 -3.150391,7.37305 v 26.66797 h 5.865235 V 157.0918 c 0,-1.93207 0.565893,-2.47113 1.050781,-2.87696 0.42668,-0.35711 0.626213,-0.38603 0.6875,-0.40039 h 11.220703 v -5.86523 z"
           id="path2" /><path
           style="color:#000000;fill:url(#linearGradient6);fill-opacity:1;-inkscape-stroke:none"
           d="m 185.19906,147.94922 0.2793,0.0547 c 0,0 1.80426,0.3626 3.41992,1.71484 1.61566,1.35224 3.15039,3.91675 3.15039,7.37305 v 26.66797 h -5.86524 v -26.66797 c 0,-1.93207 -0.56589,-2.47113 -1.05078,-2.87696 -0.42668,-0.35711 -0.62621,-0.38603 -0.6875,-0.40039 h -11.2207 v -5.86523 z"
           id="path2-4" /></g><path
         id="rect1"
         style="fill:#e8c595;fill-opacity:1;stroke-width:0.291032"
         d="m 41.423223,120.09325 c -3.845284,0 -6.941178,3.0959 -6.941178,6.94117 v 29.22509 c 0,3.84529 3.095894,6.94118 6.941178,6.94118 h 14.405839 c 2.030516,0 3.846354,-0.86903 5.113383,-2.24999 0.630673,-0.2042 1.291951,-0.41553 2.038635,-0.64027 h 11.21637 62.33573 11.21637 c 0.74669,0.22474 1.40796,0.43607 2.03863,0.64027 1.26703,1.38096 3.08287,2.24999 5.11338,2.24999 h 14.40584 c 3.84529,0 6.94118,-3.09589 6.94118,-6.94118 v -29.22509 c 0,-3.84527 -3.09589,-6.94117 -6.94118,-6.94117 h -14.40584 c -1.8715,0 -3.56208,0.73761 -4.80797,1.93373 -0.88423,0.28606 -1.87634,0.60843 -3.03289,0.95653 H 136.53318 74.19745 63.669927 c -1.156556,-0.3481 -2.148667,-0.67047 -3.03289,-0.95653 -1.245894,-1.19612 -2.936468,-1.93373 -4.807975,-1.93373 z" /><rect
         style="fill:#483737;stroke:none;stroke-width:5.76725"
         id="rect2"
         width="12.420665"
         height="37.090195"
         x="62.833946"
         y="122.96247" /><rect
         style="fill:#1a1a1a;stroke:none;stroke-width:5.78604"
         id="rect2-0"
         width="12.420665"
         height="37.332367"
         x="81.198914"
         y="122.99635" /><rect
         style="fill:#ff0000;stroke:none;stroke-width:5.78479"
         id="rect2-0-4"
         width="12.420665"
         height="37.316219"
         x="100.66659"
         y="122.98859" /><rect
         style="fill:#d8a148;fill-opacity:1;stroke:none;stroke-width:5.7685"
         id="rect2-0-83"
         width="12.420665"
         height="37.106339"
         x="133.78381"
         y="123.0059" /></g></g></svg>
