<?xml version="1.0" encoding="UTF-8" standalone="no"?>
<!-- Created with Inkscape (http://www.inkscape.org/) -->

<svg
   width="128mm"
   height="40mm"
   viewBox="0 0 128 40"
   version="1.1"
   id="svg1"
   xml:space="preserve"
   inkscape:version="1.3 (0e150ed6c4, 2023-07-21)"
   sodipodi:docname="resistor-base-lumminance.svg"
   xmlns:inkscape="http://www.inkscape.org/namespaces/inkscape"
   xmlns:sodipodi="http://sodipodi.sourceforge.net/DTD/sodipodi-0.dtd"
   xmlns:xlink="http://www.w3.org/1999/xlink"
   xmlns="http://www.w3.org/2000/svg"
   xmlns:svg="http://www.w3.org/2000/svg"><sodipodi:namedview
     id="namedview1"
     pagecolor="#ffffff"
     bordercolor="#000000"
     borderopacity="0.25"
     inkscape:showpageshadow="2"
     inkscape:pageopacity="0.0"
     inkscape:pagecheckerboard="0"
     inkscape:deskcolor="#d1d1d1"
     inkscape:document-units="mm"
     inkscape:zoom="2.8284271"
     inkscape:cx="226.27417"
     inkscape:cy="113.31386"
     inkscape:window-width="1680"
     inkscape:window-height="979"
     inkscape:window-x="-8"
     inkscape:window-y="-8"
     inkscape:window-maximized="1"
     inkscape:current-layer="layer1" /><defs
     id="defs1"><linearGradient
       id="linearGradient14"
       inkscape:collect="always"><stop
         style="stop-color:#ffffff;stop-opacity:0;"
         offset="0"
         id="stop14" /><stop
         style="stop-color:#ffffff;stop-opacity:0.29962546;"
         offset="0.46914649"
         id="stop16" /><stop
         style="stop-color:#ffffff;stop-opacity:0;"
         offset="1"
         id="stop15" /></linearGradient><linearGradient
       id="linearGradient12"
       inkscape:collect="always"><stop
         style="stop-color:#87462a;stop-opacity:0.72952855;"
         offset="0.42057765"
         id="stop12" /><stop
         style="stop-color:#5c323a;stop-opacity:0;"
         offset="1"
         id="stop13" /></linearGradient><inkscape:path-effect
       effect="fillet_chamfer"
       id="path-effect1"
       is_visible="true"
       lpeversion="1"
       nodesatellites_param="F,0,0,1,0,0,0,1 @ F,0,0,1,0,0,0,1 @ F,0,0,1,0,0,0,1 @ F,0,0,1,0,0,0,1 @ F,0,0,1,0,2.7711668,0,1 @ F,0,0,1,0,2.81328,0,1 @ F,0,0,1,0,0,0,1 @ F,0,0,1,0,0,0,1 @ F,0,0,1,0,0,0,1 @ F,0,0,1,0,0,0,1 @ F,0,0,1,0,0,0,1"
       radius="0"
       unit="px"
       method="auto"
       mode="F"
       chamfer_steps="1"
       flexible="false"
       use_knot_distance="true"
       apply_no_radius="true"
       apply_with_radius="true"
       only_selected="false"
       hide_knots="false" /><inkscape:path-effect
       effect="fillet_chamfer"
       id="path-effect1-6"
       is_visible="true"
       lpeversion="1"
       nodesatellites_param="F,0,0,1,0,0,0,1 @ F,0,0,1,0,0,0,1 @ F,0,0,1,0,0,0,1 @ F,0,0,1,0,0,0,1 @ F,0,0,1,0,2.7711668,0,1 @ F,0,0,1,0,2.81328,0,1 @ F,0,0,1,0,0,0,1 @ F,0,0,1,0,0,0,1 @ F,0,0,1,0,0,0,1 @ F,0,0,1,0,0,0,1 @ F,0,0,1,0,0,0,1"
       radius="0"
       unit="px"
       method="auto"
       mode="F"
       chamfer_steps="1"
       flexible="false"
       use_knot_distance="true"
       apply_no_radius="true"
       apply_with_radius="true"
       only_selected="false"
       hide_knots="false" /><linearGradient
       inkscape:collect="always"
       xlink:href="#linearGradient12"
       id="linearGradient13"
       x1="62.573959"
       y1="75.67083"
       x2="62.573959"
       y2="55.827084"
       gradientUnits="userSpaceOnUse"
       gradientTransform="translate(0,-34.263542)" /><linearGradient
       inkscape:collect="always"
       xlink:href="#linearGradient14"
       id="linearGradient15"
       x1="63.235416"
       y1="13.096875"
       x2="63.235416"
       y2="5.5562501"
       gradientUnits="userSpaceOnUse" /><filter
       inkscape:collect="always"
       style="color-interpolation-filters:sRGB"
       id="filter129"
       x="-0.24506359"
       y="-0.099020629"
       width="1.4400979"
       height="1.1779285"><feGaussianBlur
         inkscape:collect="always"
         stdDeviation="0.56052693"
         id="feGaussianBlur129" /></filter><filter
       inkscape:collect="always"
       style="color-interpolation-filters:sRGB"
       id="filter130"
       x="-0.15357402"
       y="-0.079435759"
       width="1.2755865"
       height="1.1470011"><feGaussianBlur
         inkscape:collect="always"
         stdDeviation="0.55585299"
         id="feGaussianBlur130" /></filter><clipPath
       clipPathUnits="userSpaceOnUse"
       id="clipPath130"><path
         id="path131"
         style="color:#000000;fill:#999999;fill-opacity:1;stroke-width:0.690171;-inkscape-stroke:none"
         d="m 8.8723266,16.158704 -0.1927529,0.03772 c 0,0 -1.2455004,0.250117 -2.3605797,1.183391 -1.1150796,0.933267 -2.1740275,2.70367 -2.1740275,5.089095 v 10.355441 2.116667 1.903759 c 0.00558,0.153032 0.029526,0.304845 0.071314,0.452167 0.03908,0.01082 0.078707,0.02133 0.1188559,0.03152 0.1343562,0.03079 0.2736646,0.05806 0.4170286,0.08165 0.1435245,0.02342 0.2907731,0.04309 0.4408,0.05891 0.1499421,0.01598 0.3023698,0.02807 0.4563031,0.03617 0.1538645,0.008 0.3088809,0.01193 0.4640543,0.01188 0.1553456,6.1e-5 0.3105356,-0.0039 0.464571,-0.01188 0.153933,-0.0081 0.3063608,-0.02019 0.4563031,-0.03617 0.1498515,-0.01582 0.2969271,-0.03549 0.4402831,-0.05891 0.1435404,-0.02357 0.2830221,-0.05085 0.4175455,-0.08165 0.078252,-0.01897 0.1546178,-0.03915 0.2289265,-0.06046 0.041692,-0.14736 0.065803,-0.299141 0.07183,-0.452168 V 34.968408 32.851741 22.468913 c 0,-1.333449 0.390883,-1.705834 0.725537,-1.985926 0.2944813,-0.246464 0.4320913,-0.266042 0.4743897,-0.275952 h 5.6859577 v -4.048331 z" /></clipPath></defs><g
     inkscape:label="Layer 1"
     inkscape:groupmode="layer"
     id="layer1"><path
       id="path13"
       style="fill:url(#linearGradient15);fill-opacity:1;stroke-width:0.200862"
       d="m 19.869057,1.6630435 c -2.653901,0 -4.790596,2.136701 -4.790596,4.790592 V 26.62393 c 0,2.653906 2.136695,4.790598 4.790596,4.790598 h 9.942485 c 1.401402,0 2.65464,-0.599779 3.529106,-1.552877 0.435272,-0.140933 0.891666,-0.286786 1.407006,-0.441895 h 7.741207 43.022279 7.741208 c 0.515343,0.155109 0.971732,0.300962 1.407002,0.441895 0.874467,0.953098 2.127706,1.552877 3.529104,1.552877 h 9.942486 c 2.6539,0 4.7906,-2.136692 4.7906,-4.790598 V 6.4536355 c 0,-2.653891 -2.1367,-4.790592 -4.7906,-4.790592 h -9.942486 c -1.291654,0 -2.458443,0.509077 -3.318319,1.334604 -0.610269,0.19743 -1.294994,0.419922 -2.093211,0.66017 H 85.51114 42.488861 35.223076 c -0.798221,-0.240248 -1.482947,-0.46274 -2.093212,-0.66017 -0.859879,-0.825527 -2.026663,-1.334604 -3.318322,-1.334604 z" /><path
       id="path12"
       style="fill:url(#linearGradient13);fill-opacity:1;stroke-width:0.200862"
       d="m 19.869057,1.6630435 c -2.653901,0 -4.790596,2.136701 -4.790596,4.790592 V 26.62393 c 0,2.653906 2.136695,4.790598 4.790596,4.790598 h 9.942485 c 1.401402,0 2.65464,-0.599779 3.529106,-1.552877 0.435272,-0.140933 0.891666,-0.286786 1.407006,-0.441895 h 7.741207 43.022279 7.741208 c 0.515343,0.155109 0.971732,0.300962 1.407002,0.441895 0.874467,0.953098 2.127706,1.552877 3.529104,1.552877 h 9.942486 c 2.6539,0 4.7906,-2.136692 4.7906,-4.790598 V 6.4536355 c 0,-2.653891 -2.1367,-4.790592 -4.7906,-4.790592 h -9.942486 c -1.291654,0 -2.458443,0.509077 -3.318319,1.334604 -0.610269,0.19743 -1.294994,0.419922 -2.093211,0.66017 H 85.51114 42.488861 35.223076 c -0.798221,-0.240248 -1.482947,-0.46274 -2.093212,-0.66017 -0.859879,-0.825527 -2.026663,-1.334604 -3.318322,-1.334604 z" /><g
       id="g130"
       clip-path="url(#clipPath130)"><path
         id="path128"
         style="color:#000000;fill:none;fill-opacity:1;stroke:#333333;stroke-width:0.69017;-inkscape-stroke:none;filter:url(#filter129)"
         d="m 8.1810883,37.277716 0.011693,-2.309308 V 32.851742 22.468913 c 0,-1.333449 0.390883,-1.705834 0.7255371,-1.985926 C 9.2128,20.236523 9.35041,20.216945 9.3927083,20.207035 h 5.6859577"
         sodipodi:nodetypes="cccsscc" /><path
         id="path129"
         style="color:#000000;fill:none;fill-opacity:1;stroke:#ffffff;stroke-width:0.69017;-inkscape-stroke:none;filter:url(#filter130)"
         d="M 15.078666,16.158704 H 8.8723267 l -0.1927531,0.03772 c 0,0 -1.2455002,0.250117 -2.3605795,1.183391 -1.1150798,0.933267 -2.1740275,2.70367 -2.1740275,5.089095 v 10.35544 2.116667 1.903759 c 0.00558,0.153033 0.029526,0.304845 0.071313,0.452169"
         sodipodi:nodetypes="ccccscccc" /></g><g
       id="g133"
       clip-path="url(#clipPath130)"
       transform="matrix(-1,0,0,1,128.00045,0)"><path
         id="path132"
         style="color:#000000;fill:none;fill-opacity:1;stroke:#333333;stroke-width:0.69017;-inkscape-stroke:none;filter:url(#filter129)"
         d="m 8.1810883,37.277716 0.011693,-2.309308 V 32.851742 22.468913 c 0,-1.333449 0.390883,-1.705834 0.7255371,-1.985926 C 9.2128,20.236523 9.35041,20.216945 9.3927083,20.207035 h 5.6859577"
         sodipodi:nodetypes="cccsscc" /><path
         id="path133"
         style="color:#000000;fill:none;fill-opacity:1;stroke:#ffffff;stroke-width:0.69017;-inkscape-stroke:none;filter:url(#filter130)"
         d="M 15.078666,16.158704 H 8.8723267 l -0.1927531,0.03772 c 0,0 -1.2455002,0.250117 -2.3605795,1.183391 -1.1150798,0.933267 -2.1740275,2.70367 -2.1740275,5.089095 v 10.35544 2.116667 1.903759 c 0.00558,0.153033 0.029526,0.304845 0.071313,0.452169"
         sodipodi:nodetypes="ccccscccc" /></g></g></svg>
